<svg id="151030cf-5d21-4762-b17d-fa49ba5cfe93" data-name="Calque 1" xmlns="http://www.w3.org/2000/svg" viewBox="0 0 9.57 20.5"><defs><style>.\36 23de929-1606-4e87-b854-fea1f909b449{fill:#000}</style></defs><title>fb</title><path class="623de929-1606-4e87-b854-fea1f909b449" d="M600.35 3364.74V3368.1a.15.15 0 0 1-.18.18h-1.72a3.53 3.53 0 0 0-.58.07.78.78 0 0 0-.64.77v2.22c0 .14.09.11.17.11h3l-.4 3.55h-2.8v10.26h-3.83v-.92-9.07-.26h-2.55v-.18-3.18a.15.15 0 0 1 .19-.18h2.19c.16 0 .19-.05.19-.2v-2.85a4.66 4.66 0 0 1 .49-2 2.68 2.68 0 0 1 1.62-1.38c.4-.13.83-.18 1.24-.27h3.61z" transform="translate(-590.78 -3364.74)"/></svg>