<svg id="574bb57c-7091-45e8-b46f-ef589abd8362" data-name="Calque 1" xmlns="http://www.w3.org/2000/svg" viewBox="0 0 165.82 334.83"><defs><style>.\33 126146c-c38a-4be7-935f-e31153c03eef{fill:#000}</style></defs><title>help</title><path class="3126146c-c38a-4be7-935f-e31153c03eef" d="M91.75 334.83H0V0h91.75v33.15h-5.92V5.92H5.92v322.99h79.91v-25.25h5.92v31.17z"/><path class="3126146c-c38a-4be7-935f-e31153c03eef" d="M847.64 927.67q-1.26 3-2.63 5.92h30q1.44-2.89 2.78-5.92h-30.15zM851.29 918.2q-1 3-2.18 5.92h30.21q1.2-2.9 2.29-5.92h-30.32zM856.73 899.26q-.69 3-1.47 5.92h30.52q.81-2.92 1.53-5.92h-30.58zM854.28 908.73q-.86 3-1.81 5.92h30.4q1-2.91 1.89-5.92h-30.48zM861.25 870.84c-.18 2-.38 4-.61 5.92h30.72q.36-2.94.64-5.92h-30.75zM860.17 880.31q-.4 3-.88 5.92H890q.5-2.93.92-5.92h-30.75zM858.69 889.78q-.54 3-1.16 5.92h30.6q.65-2.93 1.21-5.92h-30.65zM831.16 744.17h28.7a81.83 81.83 0 0 0-5.67-5.92h-27.92a97.42 97.42 0 0 1 4.89 5.92zM861.89 861.37q-.14 3-.36 5.92h30.78q.23-2.94.37-5.92h-30.79zM833.57 725.23a45.27 45.27 0 0 0-14.85-2.66H807q2.21 1.23 4.37 2.67h22.17zM831.6 956.08q-2.36 3.12-4.83 5.92h28q2.87-2.76 5.58-5.92H831.6zM842.41 971.47a62.58 62.58 0 0 0 8.42-5.92h-27.37a80.63 80.63 0 0 1-6.48 5.92h25.43zM838 946.61q-1.88 3.07-3.85 5.92h29.07q2.19-2.83 4.24-5.92H838zM843.27 937.14q-1.53 3-3.16 5.92h29.66q1.76-2.86 3.4-5.92h-29.9zM844.75 766.66c.92 1.93 1.8 3.91 2.65 5.92h30.14q-1.36-3-2.82-5.92h-30zM852.28 785.61q1 2.92 1.83 5.92h30.48q-.91-3-1.91-5.92h-30.4zM839.79 757.19c1.11 1.92 2.17 3.9 3.19 5.92h29.87q-1.67-3.06-3.45-5.92h-29.61zM848.87 776.13q1.16 2.92 2.22 5.92h30.31q-1.12-3-2.33-5.92h-30.2zM833.78 747.72q2 2.84 3.91 5.92h29.42q-2.09-3.09-4.31-5.92h-29zM812.24 975a66.694 66.694 0 0 1-5.2 3.24h11.68A45.55 45.55 0 0 0 835.1 975h-22.86zM816.27 728.78a79.54 79.54 0 0 1 6.62 5.92h27.22a61.34 61.34 0 0 0-8.72-5.92h-25.12zM859.2 814q.49 2.94.9 5.92h30.72q-.43-3-.93-5.92H859.2zM861.49 833q.23 2.95.38 5.92h30.78q-.16-3-.39-5.92h-30.77zM862 842.43q.1 2.95.12 5.92h30.79q0-3-.13-5.92H862zM855.11 795.08q.79 2.93 1.49 5.92h30.58q-.73-3-1.55-5.92h-30.52zM860.57 823.49q.35 2.94.63 5.92h30.75q-.29-3-.65-5.92h-30.73zM857.4 804.55q.63 2.93 1.18 5.92h30.65q-.57-3-1.23-5.92h-30.6zM862.15 851.9c0 2 0 4-.11 5.92h30.78q.1-2.94.12-5.92h-30.79z" transform="translate(-727.12 -683)"/><path class="3126146c-c38a-4be7-935f-e31153c03eef" d="M857.5 849.92c0-69.31-32.8-125.49-73.25-125.49-12.77 0-24.77 5.6-35.22 15.44v-7.58c10.76-8.79 22.74-13.44 35.22-13.44a51.34 51.34 0 0 1 21.61 4.83V696h-65.7v308.8h65.7v-28a51.34 51.34 0 0 1-21.61 4.83c-12.48 0-24.46-4.65-35.22-13.44v-7.92c10.45 9.84 22.45 15.44 35.22 15.44a45.94 45.94 0 0 0 21.61-5.55v-.33c29.9-15.76 51.64-63.48 51.64-119.91z" transform="translate(-727.12 -683)"/></svg>