<svg viewBox="0 0 1527 1531" xmlns="http://www.w3.org/2000/svg" xmlns:serif="http://www.serif.com/" fill-rule="evenodd" clip-rule="evenodd" stroke-linejoin="round" stroke-miterlimit="1.414"><g serif:id="Plan de travail1" transform="matrix(1.016 0 0 1 -289.787 -254.91)"><path fill="none" d="M285.223 254.91h1502.54v1530.07H285.223z"/><clipPath id="a"><path d="M285.223 254.91h1502.54v1530.07H285.223z"/></clipPath><g clip-path="url(#a)"><path d="M1776.406 1024.91c0-207.665-82.845-395.667-216.782-531.75-133.937-136.082-318.987-220.25-523.377-220.25-204.395 0-389.437 84.168-523.376 220.25-133.94 136.083-216.783 324.085-216.783 531.75 0 207.66 82.842 395.67 216.783 531.75 133.939 136.08 318.98 220.25 523.376 220.25 204.39 0 389.44-84.17 523.377-220.25 133.937-136.08 216.782-324.09 216.782-531.75zm-928.314 145.25V678.306l13.104-2.274 474.392-82.284.453-.092 18.819-3.834v21.604h-.06l-.63 631.114.148.88c.168 1.03.296 2.06.394 3.1 2.923 39.58-10.207 77.35-33.81 106.45-23.621 29.1-57.716 49.55-96.732 54.5-2.194.28-4.547.51-7.047.7-36.604 2.81-70.738-8.84-96.89-30.41-26.181-21.6-44.291-53.11-48.829-89.99-.275-2.34-.502-4.69-.669-7.04-2.982-39.51 10.177-77.3 33.81-106.42 23.631-29.13 57.765-49.61 96.722-54.5 11.83-1.5 23.8-1.48 35.62.07 4.232.55 8.406 1.3 12.52 2.24V815.708l-295.772 55.927-.15 205.585c-.014 24.59-.03 49.11-.03 218.19 2.722 39.23-10.365 76.63-33.778 105.51-23.606 29.11-57.72 49.58-96.703 54.53-2.085.26-4.342.48-6.758.67-36.752 2.86-70.982-8.81-97.19-30.45-26.242-21.66-44.358-53.26-48.848-90.22-.248-2.05-.466-4.29-.65-6.73-3.023-39.56 10.076-77.35 33.689-106.47 23.609-29.11 57.735-49.57 96.758-54.46a138.21 138.21 0 0 1 35.603.11c4.231.56 8.406 1.32 12.514 2.26z" fill="#fff"/><path fill="none" d="M28.37.91h2015.753v2048H28.37z"/></g></g></svg>