<svg id="0a838fc6-9039-4aa8-97dd-e814aa8e7db2" data-name="Calque 1" xmlns="http://www.w3.org/2000/svg" viewBox="0 0 507.06 312.86"><defs><style>.f33d704e-f655-4e14-80a2-ba2773509f8d{fill:#fff}.d0faa7a0-65c5-4598-9ff9-c0ec405cc4b4{fill:#ff458c}</style></defs><title>logo-fullpink</title><path class="f33d704e-f655-4e14-80a2-ba2773509f8d" d="M164.7 79.58l2.48-16.95 3.72-27.29 13.23-2.9 25.63 1.66 8.27 6.61.42 17.37 10.75-18.61 3.72-13.23 22.33-1.65 5.79 4.13 9.09 25.22 4.96-16.95 5.79-10.75 15.3-7.44 21.5-.41 13.23 9.92 28.12 43.83 29.77 2.06 35.14-11.57 29.77-2.48 23.16 7.02 4.13 6.21-14.47 33.9 2.9 5.79 4.54 7.86 5.79 9.09-1.24 20.68-4.13 14.47-13.23 12.4 4.13 4.55 21.5 5.79 11.99 7.85 6.2 14.89-6.61 28.94-16.95 20.26-33.49 6.62-24.4-7.44-4.55 6.61-2.07 8.27-31.01.83-11.57-16.13-6.62 20.68-9.09 2.06 1.65 9.51-7.44 9.1-35.56 6.61-19.44-5.37-3.3-3.31-2.48-12.4-15.72 4.96-31.01-2.07-17.78-19.43-11.99 1.24-19.43 9.51-4.13 20.26-31.43 4.55-2.48-78.56-11.99-11.17-17.78 9.1-29.36 11.99-27.28-4.13-23.57-14.89-13.65-29.35 3.31-27.29 16.95-31.43 33.91-25.22 26.05-2.48 22.74 3.31 19.43 2.89 5.79-7.03 2.89-11.58-.82-9.09z"/><path class="d0faa7a0-65c5-4598-9ff9-c0ec405cc4b4" d="M123.23 512.52s15-11.61 28.4-7.65c0 .01-15.31-12.13-28.4 7.65zM18.83 423.68S22.07 429.9 28 425c0 0-4 1.79-9.17-1.32zM130 328.55a23.14 23.14 0 0 0 14.49-2.77s-15.3.73-21.23-4.38c-.03 0 .53 6.21 6.74 7.15zM290.73 484.08c-8.15 1-13.47 8-13.68 15.63-.33 8.21 4.93 13.18 12.7 12.23s13.37-7.23 13.71-15.44c.21-7.62-4.58-13.4-12.73-12.42zM218.39 321.15c.16-4.36-4.59-3.72-7.58-3.35l-1.81.2-.26 8.65 2.11-.26c3.03-.39 7.44-.95 7.54-5.24zM234.87 376l-3.22.39-.68 20 2.92-.35c6.91-.84 13.84-2.77 14.18-11.54.28-9.05-5.99-9.38-13.2-8.5zM212.76 490.76l-2.44.3-.48 12.5 2.53-.31c4.5-.55 9.37-1.9 9.61-7.73.18-5.62-4.98-5.27-9.22-4.76zM217 302.22c.15-3.88-3.28-3.19-6-2.85l-1.29.16-.35 7.47 1.7-.2c2.72-.32 5.81-.97 5.94-4.58zM267 304c-.47-2.15-.67-4.4-.94-6.58l-.68.08-4 16.35 7.48-.91z" transform="translate(-18.83 -250.09)"/><path class="d0faa7a0-65c5-4598-9ff9-c0ec405cc4b4" d="M525.88 464.59L524.54 454l-2.54-5.7c-5.08-11.55-17.66-17.81-30.51-19.37a52.64 52.64 0 0 0 12.26-32.16 49.09 49.09 0 0 0-.09-4.92c0-.45.07-.9.09-1.36.3-8.87-1.6-22.07-13.41-30.72l16.55-41.2-2.2-1.36-7-3.58c-12.39-6.3-26.3-8.57-41.36-6.74a74.46 74.46 0 0 0-13.56 3l12-11.27-57.57 16.22 7.73-64.75-39.66 50.43-25.21-44.27.56 11.62-.74-.38a36.07 36.07 0 0 0-21.07-3.49c-13.2 1.61-26.8 10.63-29.88 25.12l-6.49-19.76-32.93 4-7.19 19.89a18.27 18.27 0 0 0-5.55-10.43c-5.09-4.69-12.71-6.34-23.31-5l-29 3.53-.81 22.75c-.66.44-1 .74-1 .74s-12 8.58-21.46 4c0 0 3.68 6.68 13.68 6.94h.13a58.85 58.85 0 0 0 8.22-.43v1.08c-4.23.75-10.84 2.88-19.34 8.71 0 0-18.87 15.7-32.68 7.18 0 0 7.9 14.46 26.88 12.43 0 0 11.13-.69 17 3.36a25.52 25.52 0 0 1-15.08 2.21 80.23 80.23 0 0 0-35.11-3.64c-20 2.43-38.21 11.11-51.4 24.45a76.89 76.89 0 0 0-16.23 24.15v-.1l-.12.43a78.09 78.09 0 0 0-2.9 8.24C50 414.39 41 431 26.58 432.55c0 0 12.79 5.84 24.35-1.14s-8.7 8.5-14.65 7.14a10.78 10.78 0 0 0 8.39.15s5.93-1.61 6.72 3.51c1.65 14.27 7.46 26.28 17.13 35.15 10.86 10 25.86 15.22 43 15.22a89.47 89.47 0 0 0 10.79-.67 83.88 83.88 0 0 0 17-4 20.75 20.75 0 0 0-6.64 7c10.68-7 25.93 4.88 25.93 4.88 8.77 5.64 15 6.55 17.82 6.61v.59a12.74 12.74 0 0 1-7.14-.09c-9.27-.36-12.42 5.82-12.42 5.82 7.34-3.8 17 2.68 17 2.68.76.41 1.49.78 2.21 1.12l-1.41 39.66h.22l-.22 6.31 42.12-5.12.79-21.67 5.77-.7a36.09 36.09 0 0 0 21.46-10 35.65 35.65 0 0 0 9.63 14.77C261.76 546.43 271.74 550 283 550a57.31 57.31 0 0 0 6.91-.43 58.51 58.51 0 0 0 20.75-6.5v4.1a10 10 0 0 0 0 1.86c1.1 9.59 14.13 13.94 28.59 13.94a76 76 0 0 0 8.6-.5c16.84-1.93 33.66-9.67 33.24-20.64l-.06-4.36v-.15l14.65-1.78.55-14.79 8.28 13.72L442 529.9l.47-13.26.26.25c7.26 6.66 17.2 10.17 28.5 10.17a57.79 57.79 0 0 0 7-.43 57 57 0 0 0 35.93-19.39c10.52-12.26 11.11-24.53 11.68-36.39l-.19-1.85c.09-1.46.16-2.94.23-4.41zm-68.48-149.1c13.2-1.61 25.26.2 36.39 5.86l-12.52 31.59c-7-4.13-15-7.05-24.09-6-3.68.45-9 2.5-9.23 7.35-.09 4.37 5 4.37 8.21 4.76l9.47 1c17.68 1.9 30.2 10 29.51 30.06-1.09 28.18-26.76 45.16-51.78 48.2-14.58 1.77-31.34-.24-44.12-5.38l14.14-34.9 2 1.46c7.31 5 16.18 8.78 25.85 7.61 4.14-.5 10.85-3 11-8.35.29-5.33-5.3-5.12-9.07-5.44l-8.48-.53c-10-.6-18.82-3.89-24.08-10.54a62.61 62.61 0 0 0-4.93-18c1.52-27.4 26.83-45.72 51.73-48.75zm-109.56 18.14a56.18 56.18 0 1 1-56.18 56.18 56.18 56.18 0 0 1 56.18-56.18zm4.31 186.78a28.82 28.82 0 0 1-6.31 1.41c-7.63.87-12.63-1.15-13-2.52l2.62-63.25a41.74 41.74 0 0 0 24.64-.74l-2.53 61.72c-.63 1-2.47 2.32-5.41 3.36zm-51.77-211.23l.91.65c3.24 2.23 7.16 3.89 11.44 3.36 1.83-.22 4.8-1.34 4.86-3.69s-2.34-2.27-4-2.41l-3.75-.23c-7.22-.43-13.18-4.05-12.86-12.23.43-12.39 11.76-20.67 22.9-22a27.34 27.34 0 0 1 16.1 2.6l-5.54 14a16.81 16.81 0 0 0-10.66-2.63c-1.63.2-4 1.11-4.08 3.26 0 1.93 2.23 1.93 3.63 2.11l4.19.46c7.82.84 13.36 4.44 13.06 13.3-.48 12.47-11.84 20-22.92 21.33a41.71 41.71 0 0 1-19.53-2.38zm-44.53-27.84l20.59-2.5 16.42 50-19.71 2.39-1.46-6.3-14.06 1.71-1.74 6.69-19.7 2.4zm-63 7.69l21.67-2.64c9.92-1.21 20 0 19.53 12-.13 4.57-2.52 9.34-7.1 11.34v.41c5.54 1.33 8.89 5.06 8.68 11.29-.42 10.74-10.31 15.59-19.28 16.68L191 341.24zm-39.26 195.46a24.57 24.57 0 0 0-6.36.33 90 90 0 0 0 12.07-6.61 31.34 31.34 0 0 1 7.61 3.22c-4.53 3.33-13.32 3.06-13.32 3.06zm17.52-34.38c-12.65 15.09-31.89 24.75-49.85 26.93-35.31 4.29-63-14.47-61.67-52.33 1.4-38.49 30-65 66.34-69.44 20.11-2.45 47.42 4.36 55.82 23.44L141.9 398.2c-3-5.55-8.91-8-15.67-7.13-15 1.83-23.76 16-24.37 30.23-.45 13 7.15 24.21 20.81 22.55 6.6-.8 15.13-5 17.34-12.39l-19 2.31 1-27.85 64.94-7.9c-.95 19.28-1.51 35.39-15.83 52.09zm51.2 70l-13.11 1.59-.79 21.67-24.72 3 2.56-72 32.49-3.95c16.48-2 28.37 5.1 27.78 22.95-.58 14.73-9.88 24.99-24.21 26.73zm8.29-95.92l-.77.09-1.32 37.86-41.14 5 4.2-118 50.81-6.14c22.88-2.78 42.43 3.47 46.18 25.09a62.84 62.84 0 0 0-3.86 21.74c0 2 .1 4 .29 6-3.72 6.79-10 11.46-19.33 15.73v.94a25.29 25.29 0 0 1 6.83 6.18l23.76 35.28-48.51 5.9zm58.3 110.49c-21.54 2.62-38.55-9.09-37.74-32.19.86-22.63 19-39.46 40.4-42.07s38.55 9.95 37.69 32.57c-.8 23.09-18.81 39.06-40.35 41.68zm58.54 17.8c-17.06 2-31.57-2.36-32.4-9.64-.35-3.08 1.83-6.2 5.73-8.92v5.56c.65 5.66 11.94 9 25.21 7.5 12.82-1.47 22.78-7 22.86-12.43l-.05-5.12c-.77 5.27-10.48 10.41-22.83 11.83-13.27 1.52-24.56-1.84-25.21-7.5-.37-3.26 2.87-6.57 8.21-9.08a4.38 4.38 0 0 1 .87-1.89 7.62 7.62 0 0 0 1.2 1h.07a10.16 10.16 0 0 0 1.19.71 22.44 22.44 0 0 0 9.8 1.91 36.3 36.3 0 0 0 4.09-.24c6-.69 12-3 14.59-6.31a3.5 3.5 0 0 1 .93 1.94v.25c4.16 1.37 6.87 3.51 7.18 6.18 4.64 1.77 7.61 4.38 8 7.55.78 7.22-12.37 14.73-29.43 16.69zm86.21-36.54l-24.53 3-21.18-35.06-.75.09a89.16 89.16 0 0 1 1.06 14.22l-.86 23.39-15.9 1.93a14.3 14.3 0 0 0-6.26-4.77 8.4 8.4 0 0 0-2.08-2.64l2.26-63.51 24.63-3 21.61 37.09.75-.09c-.81-5.89-1.74-12-1.44-18.07l.7-21.56 24.53-3zm74-20.59a48.59 48.59 0 0 1-30.41 16.43c-21.54 2.62-38.42-8.82-37.61-31.92.85-23.48 18.27-39.66 40.46-42.36 12.27-1.49 28.93 2.66 34 14.3l-24.31 11.89c-1.84-3.39-5.44-4.85-9.56-4.35-9.18 1.12-14.49 9.74-14.86 18.44-.27 7.92 4.36 14.77 12.69 13.76 4-.49 9.23-3 10.58-7.56l-11.61 1.41.6-17 39.61-4.81c-.53 11.74-.86 21.57-9.6 31.76z" transform="translate(-18.83 -250.09)"/><path class="d0faa7a0-65c5-4598-9ff9-c0ec405cc4b4" d="M346.11 530.62c-9 1-16.72-1.25-17.16-5.1a3 3 0 0 1 0-.59v4.44c.44 3.85 8.12 6.14 17.16 5.1 8.73-1 15.51-4.73 15.56-8.46v-3.38c-.59 3.55-7.18 7.03-15.56 7.99zM386.66 354.8a52.42 52.42 0 0 1-83.09 62.93 52.43 52.43 0 1 0 83.09-62.93z" transform="translate(-18.83 -250.09)"/></svg>