<svg id="4ad930f4-8a61-4ef4-9936-3855e8eb21a9" data-name="Calque 1" xmlns="http://www.w3.org/2000/svg" viewBox="0 0 511.56 315.64"><defs><style>.f3e6d09b-16b4-4cd2-b8b4-c0c88d08c8b6{fill:#010101}.\32 b12b150-d7a6-4444-bfb5-a1794b96a593{fill:#fff}.\32 bbe3cd8-6fd3-46a3-9701-122736ff826f{fill:none}.\34 927bc0c-eb03-451b-8687-650a021f4004{fill:#1fd316}.\38 8cf9ed3-5ff7-46fa-ac83-200fa22165f0{fill:#fbf3a7}.\35 91f48af-4603-4f93-b4f9-238ff6d48a98{fill:#1fd316}</style></defs><title>logo-green</title><path class="f3e6d09b-16b4-4cd2-b8b4-c0c88d08c8b6" d="M310.36 100.37l-30.51-53.65 47.24 21.39-2.99-61.89 25.43 44.65 40-50.87-7.8 65.32 58.08-16.39-51.01 48.03 39.88 11.49-54.19 17.31-49.98 2.45-14.15-27.84z"/><path class="f3e6d09b-16b4-4cd2-b8b4-c0c88d08c8b6" d="M212.27 266l5.35 19.28-7.71 47.57-17 9.81-31.56-18.39-2.95-9.27c11.69 3.92 20.35-1 20.35-1-5.91-4.08-17.14-3.39-17.14-3.39-19.15 2-27.12-12.54-27.12-12.54 13.93 8.6 33-7.24 33-7.24 15.52-10.66 24.85-9.09 24.85-9.09a16.15 16.15 0 0 0-11.49-.41c-11.84.82-16.11-7-16.11-7 9.53 4.58 21.65-4.08 21.65-4.08s7.07-5.43 14.95-6.11zM193.69 487.82s-6.21.24-16.13-5.09c0 0-9.76-6.53-17.16-2.7 0 0 3.18-6.23 12.53-5.87a12.73 12.73 0 0 0 9.05-.6s-7.32 1.44-19.81-6.56c0 0-15.38-12-26.16-4.92 0 0 5.93-11.69 21.08-10.53 0 0 8.87.28 13.43-3.09 0 0-10.39-6.54-19.51-3.17l5.52-4.55 27.74-24.34 10.36 16.42 7.22 37.31-3.76 15.33z" transform="translate(-21.13 -215.06)"/><path class="f3e6d09b-16b4-4cd2-b8b4-c0c88d08c8b6" d="M118.37 342.5l-22.93 38.76 11.46 32.29 7.64 13.34 54.59-16.26 38.76-14.09 7.83 41.74 21.51 13 31.89 17.46 9.19 9.89 23.28 4.66L338.37 494l23.75-32 55.52-17.38L449.2 451l4.12-56.09-7.12-55.14-85.44-15.29-29.54-23.3-22.81-19.6-70.61-1.2s-31 19.32-30.45 20.79-22.48 48.58-22.48 48.58z" transform="translate(-21.13 -215.06)"/><path class="f3e6d09b-16b4-4cd2-b8b4-c0c88d08c8b6" d="M531.34 420.75l-2.52-5.75c-5.88-13.35-21.68-19.7-36.44-19.93a53.76 53.76 0 0 0 18-38.39c.32-9.43-1.8-23.72-15.52-32.37l16.47-41.56-7.09-3.61c-12.5-6.36-26.53-8.64-41.73-6.8a74.38 74.38 0 0 0-40 17.79c-12.47 11-19.35 25.14-19.88 40.74-.42 10.95 3.16 20 10 26.42l-19.09 47.12 6.35 2.55-37.55 4.56-3.21 90.27 42.3-5.14.57-14.87 8.36 13.84 37.75-4.62.48-13.37.26.26c7.32 6.72 17.36 10.26 28.75 10.26a58.4 58.4 0 0 0 7.06-.44 57.52 57.52 0 0 0 36.25-19.56c10.62-12.37 11.21-24.75 11.78-36.71l-1.36-10.72zm-129.67-13c2.29.92 4.71 1.74 7.18 2.47L408.5 421l-8-13.77zM345 232.62a36.39 36.39 0 0 0-21.26-3.5c-13.32 1.62-27 10.73-30.14 25.35l-6.55-19.94-33.22 4-7.25 20.06a18.43 18.43 0 0 0-5.6-10.52c-5.13-4.73-12.83-6.39-23.52-5.09l-29.28 3.56-2.39 67.07-.56 15.66c-13.74-14-37.22-19.22-57.13-16.79-20.1 2.52-38.51 11.24-51.82 24.7-14.12 14.28-22 32.87-22.75 53.76-.68 19.53 5.47 35.82 17.74 47.06 11 10.05 26.09 15.35 43.37 15.35a90.17 90.17 0 0 0 10.89-.67 88.62 88.62 0 0 0 55.87-30.16l.57-.69-.8 22.61-2.82 79.41 42.49-5.16.79-21.86 5.82-.71A36.41 36.41 0 0 0 249.12 486a36 36 0 0 0 9.72 14.9c7.38 6.77 17.45 10.35 28.84 10.35a57.84 57.84 0 0 0 7-.43c27.57-3.35 47.47-24.08 48.39-50.41.48-12.75-3.86-24-12.22-31.7-7.33-6.75-17.13-10.38-28.12-10.55l-23.41-34.76c11.62-8 16.8-18.42 17.35-33.94.5-14-3.47-24.94-11.8-32.59-5.25-4.82-12-8-20.13-9.61l2.55-.31 1.75-6.75.49-.06 1.47 6.36 38.24-4.65-.13-.41c1.56.14 3.13.21 4.69.21a48.5 48.5 0 0 0 5.85-.35c14.34-1.74 30.1-11.83 30.8-29.9.23-6.65-1.86-12.13-5.89-16l7.6-19.19zM115.56 397.34a18 18 0 0 1-1.93-9.18 29.29 29.29 0 0 1 2.64-11zm65.6-40.67l3.19-1.56v1.18zm69.29 79.39l11.55-1.42a53.27 53.27 0 0 0-6.45 7.85 26.35 26.35 0 0 0-5.1-6.43zm-11.92-8.33l1.06 2.22-1.13-.32zm61 35.65c-.18 3.95-2.59 6.77-6.15 7.21a3.33 3.33 0 0 1-2.37-.33c-.35-.32-.73-1.3-.67-3v-.11c.09-3.29 2.23-6.87 6.13-7.34a6.41 6.41 0 0 1 .75 0 2.19 2.19 0 0 1 1.43.38 4.45 4.45 0 0 1 .91 3.18z" transform="translate(-21.13 -215.06)"/><path class="f3e6d09b-16b4-4cd2-b8b4-c0c88d08c8b6" d="M531.34 427.08l-2.51-5.71c-5.88-13.35-21.68-19.7-36.44-19.93a53.76 53.76 0 0 0 18-38.39c.32-9.43-1.8-23.72-15.52-32.37l18.69-46.52-2.22-1.37-7.09 2.73c-12.5-6.36-26.53-8.64-41.73-6.8a74.38 74.38 0 0 0-40 17.79c-12.47 11-19.35 25.14-19.88 40.74-.42 10.95 3.16 20 10 26.42l-19.09 47.12 6.35 2.55-37.55 4.56-3.21 90.27 42.3-5.14.56-14.91 8.34 13.88 37.77-4.59.47-13.41.26.26c7.32 6.72 17.36 10.26 28.75 10.26a58.4 58.4 0 0 0 7.06-.44 57.52 57.52 0 0 0 36.25-19.56c10.62-12.37 11.21-24.75 11.78-36.71l-1.36-10.72zm-129.67-13c2.29.92 4.71 1.74 7.18 2.47l-.35 10.82-8-13.77zM345 239a36.39 36.39 0 0 0-21.26-3.5c-13.32 1.62-27 10.73-30.14 25.35l-6.55-19.94-33.22 4-7.21 20.09a18.43 18.43 0 0 0-5.6-10.52c-5.13-4.73-12.83-6.39-23.52-5.09l-29.28 3.56-2.39 67.05-.56 15.66c-13.74-14-37.22-19.22-57.13-16.79-20.13 2.45-38.55 11.21-51.86 24.67-14.12 14.28-22 32.87-22.75 53.76-.68 19.54 5.45 35.82 17.74 47.09 11 10.05 26.09 15.35 43.37 15.35a90.17 90.17 0 0 0 10.89-.67 88.62 88.62 0 0 0 55.87-30.16l.57-.69-.8 22.61-2.82 79.41 42.51-5.24.79-21.86 5.82-.71a36.41 36.41 0 0 0 21.65-10.12 36 36 0 0 0 9.72 14.9c7.38 6.77 17.45 10.35 28.84 10.35a57.84 57.84 0 0 0 7-.43c27.57-3.35 47.47-24.08 48.39-50.41.48-12.75-3.86-24-12.22-31.7-7.33-6.75-17.13-10.38-28.12-10.55l-23.41-34.76c11.62-8 16.8-18.42 17.35-33.94.5-14-3.47-24.94-11.8-32.59-5.25-4.82-12-8-20.13-9.61l2.55-.31 1.75-6.75.49-.06 1.47 6.36 38.24-4.65-.13-.41c1.56.14 3.13.21 4.69.21a48.5 48.5 0 0 0 5.85-.35c14.34-1.74 30.1-11.83 30.8-29.9.23-6.65-1.86-12.13-5.89-16l7.6-19.19zM115.56 403.67a18 18 0 0 1-1.93-9.18 29.29 29.29 0 0 1 2.64-11zm65.6-40.67l3.19-1.56v1.18zm69.29 79.39L262 441a53.27 53.27 0 0 0-6.45 7.85 26.35 26.35 0 0 0-5.1-6.46zm-11.92-8.33l1.06 2.22-1.13-.32zm61 35.65c-.18 3.95-2.59 6.77-6.15 7.21a3.33 3.33 0 0 1-2.37-.33c-.35-.32-.73-1.3-.67-3v-.11c.09-3.29 2.23-6.87 6.13-7.34a6.41 6.41 0 0 1 .75 0 2.19 2.19 0 0 1 1.43.38 4.45 4.45 0 0 1 .91 3.19z" transform="translate(-21.13 -215.06)"/><path class="2b12b150-d7a6-4444-bfb5-a1794b96a593" d="M334.32 460.12c-.81 23.3-19 39.41-40.71 42.05s-38.9-9.17-38.09-32.47c.87-22.83 19.13-39.81 40.76-42.44s38.9 10.04 38.04 32.86zm-52.67 6.79c-.33 8.28 5 13.3 12.81 12.34S308 472 308.29 463.67c.21-7.7-4.62-13.53-12.84-12.53s-13.59 8.07-13.81 15.77zM370.81 419.34l24.85-3 21.8 37.42.76-.09c-.82-5.94-1.75-12.06-1.45-18.23l.71-21.75 24.75-3-2.58 72.6-24.75 3-21.37-35.39-.76.09a90 90 0 0 1 1.07 14.35l-.84 23.59-24.75 3zM524 430.44c-.57 11.86-.9 21.78-9.72 32a49 49 0 0 1-30.68 16.58c-21.73 2.64-38.76-8.9-37.95-32.2.86-23.69 18.43-40 40.82-42.73 12.38-1.5 29.18 2.69 34.35 14.42l-24.52 12c-1.85-3.42-5.48-4.9-9.64-4.39-9.26 1.13-14.62 9.83-15 18.6-.28 8 4.4 14.9 12.81 13.88 4.06-.49 9.31-3.05 10.67-7.63l-11.71 1.42.57-17.09zM196.68 254.34l21.87-2.66c10-1.22 20.17 0 19.7 12.15-.14 4.61-2.54 9.42-7.17 11.44v.42c5.59 1.34 9 5.1 8.76 11.39-.42 10.83-10.4 15.73-19.45 16.83L194.81 307zm16 38l2.12-.26c3.08-.37 7.53-1 7.63-5.31s-4.63-3.75-7.65-3.38l-1.85.23zm2.36-20c2.74-.33 5.86-1 6-4.62.15-3.91-3.31-3.21-6.05-2.88l-1.3.16-.33 7.55zM260.3 299l-19.88 2.42 19.83-54.86 20.75-2.5 16.57 50.44-19.88 2.42-1.47-6.36-14.19 1.73zm13.08-20.58l-1.86-9c-.47-2.17-.68-4.44-.94-6.63l-.68.08-4 16.49zM305.18 274.68l.91.66c3.26 2.25 7.22 3.92 11.54 3.39 1.85-.22 4.84-1.35 4.9-3.73s-2.36-2.29-4-2.43l-3.79-.24c-7.29-.44-13.3-4.09-13-12.34.43-12.5 11.86-20.85 23.11-22.22a27.58 27.58 0 0 1 16.25 2.62l-5.59 14.11a17 17 0 0 0-10.76-2.66c-1.64.2-4 1.12-4.12 3.28 0 2 2.25 2 3.67 2.13l4.23.46c7.89.85 13.48 4.48 13.18 13.42-.49 12.58-11.95 20.16-23.12 21.52a42.08 42.08 0 0 1-19.7-2.4zM190.7 364.31c-.94 19.45-1.48 35.7-15.93 52.55-12.77 15.23-32.17 25-50.29 27.17-35.62 4.33-63.54-14.59-62.22-52.79 1.41-38.83 30.22-65.6 66.93-70.06 20.29-2.47 47.84 4.4 56.31 23.65l-40.2 19.66c-3-5.6-9-8-15.81-7.19-15.18 1.84-24 16.12-24.58 30.49-.45 13.1 7.21 24.43 21 22.75 6.66-.81 15.27-5 17.5-12.5l-19.21 2.34 1-28.1zM190 441.37l32.78-4c16.63-2 28.62 5.15 28 23.15-.59 14.84-10 25.18-24.43 26.94l-13.23 1.61-.79 21.86-24.94 3zm23.8 29.42l2.55-.31c4.54-.55 9.45-1.92 9.69-7.79.17-5.68-5.06-5.33-9.31-4.81l-2.46.3z" transform="translate(-21.13 -215.06)"/><path class="2bbe3cd8-6fd3-46a3-9701-122736ff826f" d="M280.05 120.94h.85V138h-.85z"/><path class="f3e6d09b-16b4-4cd2-b8b4-c0c88d08c8b6" d="M382.31 503.15c-.37-3.2-3.36-5.83-8-7.62v-.72l-.1.1c-.63-2.41-3.24-4.36-7.1-5.63v-.24c-.45-3.89-8.2-6.19-17.31-5.15-8.43 1-15.06 4.46-15.66 8.05-4.95 2.33-8.09 5.34-8.27 8.36v1c-3.74 2.6-5.89 5.57-5.81 8.52v5.13a5.86 5.86 0 0 0 0 1.21c.84 7.34 15.48 11.7 32.69 9.72 16.87-1.93 29.94-9.22 29.67-16.42l-.06-4.72a5.92 5.92 0 0 0-.05-1.59z" transform="translate(-21.13 -215.06)"/><path class="f3e6d09b-16b4-4cd2-b8b4-c0c88d08c8b6" d="M344.48 530.7c-14.59 0-27.74-4.39-28.85-14.07a10.12 10.12 0 0 1 0-1.87v-4.95c-.08-2.69.95-6.73 6-10.83.69-3.83 3.83-7.38 9-10.17 2.7-5.21 10.9-8.37 18.66-9.26 8.84-1 18.59.67 21.41 6.43 4.18 1.83 6.21 4.21 7.18 6.31 7 3.29 8.56 7.83 8.85 10.37a10.2 10.2 0 0 1 0 2.32l.06 4.4c.42 11.06-16.55 18.88-33.54 20.82a76.57 76.57 0 0 1-8.77.5zm-14.36-30v.51a4.37 4.37 0 0 1-1.87 3.6c-2.95 2.05-4 3.83-3.94 4.81v5.66a1.55 1.55 0 0 0 0 .31c.36 3.15 11.22 7.78 27.85 5.88 16.91-1.94 25.92-8.89 25.8-11.92l-.07-4.83a4.38 4.38 0 0 1 .05-.72 1.59 1.59 0 0 0 0-.41c-.11-1-1.56-2.63-5.26-4a4.37 4.37 0 0 1-2.71-3.14c0-.11-.05-.23-.07-.34V496c-.09-.34-1.06-1.55-4.25-2.6a4.37 4.37 0 0 1-3-3.57c-1.05-.9-5.54-2.42-12.48-1.62-7.25.83-11.32 3.51-11.87 4.55a4.37 4.37 0 0 1-2.43 3.12c-4.27 2-5.73 4-5.77 4.67.03.08.03.14.02.2zm8.19-7.94zm0-.15z" transform="translate(-21.13 -215.06)"/><path class="f3e6d09b-16b4-4cd2-b8b4-c0c88d08c8b6" d="M382.33 509.55l-.09-6.67-2.76 1.51c-5.17-4.35-16.77-6.51-29.86-5-11.82 1.35-21.78 5.34-26.59 10.08l-3.08.36v5.21a5.86 5.86 0 0 0 0 1.21c.84 7.34 15.48 11.7 32.69 9.72 16.9-1.97 29.97-9.21 29.69-16.42z" transform="translate(-21.13 -215.06)"/><ellipse class="4927bc0c-eb03-451b-8687-650a021f4004" cx="351.14" cy="506.83" rx="31.37" ry="13.38" transform="rotate(-6.53 -1544.13 584.773)"/><path class="f3e6d09b-16b4-4cd2-b8b4-c0c88d08c8b6" d="M374.29 502l-.07-7.09-2.49 2.61c-4.17-3.21-13-4.77-22.89-3.64-8.8 1-16.25 3.89-20.16 7.37l-2.93-.85v6.6c.65 5.71 12 9.1 25.43 7.57 12.94-1.48 23-7 23.06-12.54z" transform="translate(-21.13 -215.06)"/><ellipse class="4927bc0c-eb03-451b-8687-650a021f4004" cx="350.02" cy="498.43" rx="24.41" ry="10.41" transform="rotate(-6.53 -1545.32 576.351)"/><path class="f3e6d09b-16b4-4cd2-b8b4-c0c88d08c8b6" d="M367 493.41v-3.68l-1.47.81c-2.74-2.3-8.87-3.45-15.81-2.66-6 .69-11.07 2.65-13.73 5l-2-.57v4.48c.45 3.89 8.2 6.19 17.31 5.15 8.81-1 15.64-4.77 15.7-8.53z" transform="translate(-21.13 -215.06)"/><ellipse class="4927bc0c-eb03-451b-8687-650a021f4004" cx="350.52" cy="491.04" rx="16.61" ry="7.09" transform="rotate(-6.53 -1544.813 568.994)"/><path class="88cf9ed3-5ff7-46fa-ac83-200fa22165f0" d="M364.66 385.66h-.33l-20.52 2.74a2.18 2.18 0 0 0-1.89 2.07l-4 96.3a2.19 2.19 0 0 0 0 .35v.3c.37 3.27 4.3 5.29 10.25 5.29a25.9 25.9 0 0 0 2.93-.17c5.56-.64 11.49-3.18 11.69-7.28v-.18l4-97.06v-.2a2.18 2.18 0 0 0-2.13-2.16z" transform="translate(-21.13 -215.06)"/><path class="f3e6d09b-16b4-4cd2-b8b4-c0c88d08c8b6" d="M347.24 493.8c-7 0-13.28-2.12-13.81-6.77a3.82 3.82 0 0 1 0-.52 2.17 2.17 0 0 1 1.94-2.35 2.18 2.18 0 0 1 2.4 2.28v.17c.16 1.38 5.26 3.51 13.09 2.61s12.14-4.13 12.14-5.53a2.19 2.19 0 0 1 4.37-.18 2.35 2.35 0 0 1 0 .35c-.15 5.19-8.09 8.8-16 9.7a36.53 36.53 0 0 1-4.13.24zM333.39 420.07a41.56 41.56 0 0 0 36.31.38l7.19-18.08-48.26-2.18z" transform="translate(-21.13 -215.06)"/><path class="2b12b150-d7a6-4444-bfb5-a1794b96a593" d="M195.4 315l51.27-6.23c26.33-3.2 48.29 5.45 47.22 35.44-.64 18-7.79 26.41-23.72 33.69v.95a25.52 25.52 0 0 1 6.83 6.25l24 35.59-49 5.95-17.22-35.94-.77.09-1.33 38.21-41.51 5zm39.74 47.66l2.94-.36c7-.85 14-2.8 14.3-11.64.3-9.15-6-9.48-13.3-8.6l-3.25.4zM419.19 364.4l2.07 1.48c7.38 5.08 16.32 8.86 26.08 7.68 4.18-.51 10.94-3.06 11.08-8.42.29-5.38-5.34-5.17-9.16-5.49l-8.55-.53c-16.47-1-30-9.24-29.32-27.87 1-28.25 26.81-47.11 52.21-50.2 13.32-1.62 25.49.2 36.71 5.91l-12.63 31.87c-7.11-4.16-15.17-7.11-24.31-6-3.72.45-9.12 2.52-9.31 7.42-.09 4.41 5.09 4.41 8.29 4.81l9.56 1c17.84 1.92 30.46 10.13 29.78 30.33-1.1 28.43-27 45.56-52.24 48.63-14.71 1.79-31.62-.24-44.51-5.43z" transform="translate(-21.13 -215.06)"/><path class="f3e6d09b-16b4-4cd2-b8b4-c0c88d08c8b6" d="M155.11 472.11s-15.45-12.25-28.65 7.71c0 .01 15.14-11.7 28.65-7.71zM178.5 281.36a58.44 58.44 0 0 0 8.48-.43s5.18-.44 7.36 2.36l-.49-3.71-13.43-3.94-2.94 2.85z" transform="translate(-21.13 -215.06)"/><circle class="2b12b150-d7a6-4444-bfb5-a1794b96a593" cx="309.27" cy="112" r="10.41"/><path class="4927bc0c-eb03-451b-8687-650a021f4004" d="M353.07 416.39a60.19 60.19 0 1 1 60.19-60.18 60.25 60.25 0 0 1-60.19 60.18z" transform="translate(-21.13 -215.06)"/><path class="f3e6d09b-16b4-4cd2-b8b4-c0c88d08c8b6" d="M353.07 299.35A56.68 56.68 0 1 1 296.39 356a56.68 56.68 0 0 1 56.68-56.68m0-7A63.69 63.69 0 1 0 416.76 356a63.77 63.77 0 0 0-63.7-63.69zM59.9 361.45s-9.47 35.36-30.9 37.7c0 0 16.06 7.34 28.52-4.13l3.91-21z" transform="translate(-21.13 -215.06)"/><path class="f3e6d09b-16b4-4cd2-b8b4-c0c88d08c8b6" d="M53.51 398s-8.77 8.57-14.78 7.21a10.88 10.88 0 0 0 8.46.15s6-1.62 6.78 3.54l4.28-1 .82-11.46-4.78-.82zM30.41 391.56s-4.09 1.77-9.28-1.36c0 0 3.27 6.28 9.28 1.36zM147.88 291.43s-15.43.73-21.42-4.42c0 0 .57 6.26 6.8 7.21a23.34 23.34 0 0 0 14.62-2.79z" transform="translate(-21.13 -215.06)"/><path class="f3e6d09b-16b4-4cd2-b8b4-c0c88d08c8b6" d="M334.06 44.75l-11.29-8.5-2.2 7.04 3.66 17.29 9.83 3.82V44.75z"/><path class="591f48af-4603-4f93-b4f9-238ff6d48a98" d="M394.39 318a56.17 56.17 0 0 1-89 67.44 56.19 56.19 0 1 0 89-67.44z" transform="translate(-21.13 -215.06)"/><circle class="2b12b150-d7a6-4444-bfb5-a1794b96a593" cx="309.64" cy="113.39" r="10.36"/></svg>