<svg id="05f35155-deab-45ba-851f-4c8f95a589a7" data-name="Calque 1" xmlns="http://www.w3.org/2000/svg" viewBox="0 0 510.62 315.06"><defs><style>.\39 db0ede5-41d3-4576-96d2-6ffaf1d4d593{fill:#fff}.d6ccccdc-4431-4be3-ad24-b032a6503c61{fill:#1fd316}</style></defs><title>logo-fullgreen</title><path class="9db0ede5-41d3-4576-96d2-6ffaf1d4d593" d="M165.85 80.14l2.5-17.07 3.75-27.48 13.32-2.92 25.82 1.67 8.32 6.66.42 17.49 10.83-18.74 3.74-13.32 22.49-1.67 5.83 4.16 9.16 25.4 4.99-17.07 5.83-10.82 15.41-7.5 21.65-.42 13.32 10 28.32 44.13 29.98 2.08 35.39-11.65 29.98-2.5 23.31 7.08 4.17 6.24-14.58 34.14 2.92 5.83 4.58 7.91 5.83 9.17-1.25 20.81-4.17 14.58-13.32 12.49 4.16 4.58 21.66 5.83 12.07 7.91 6.25 14.99-6.67 29.14-17.07 20.41-33.72 6.66-24.57-7.5-4.58 6.66-2.08 8.33-31.23.84-11.66-16.24-6.66 20.82-9.16 2.08 1.67 9.57-7.5 9.16-35.81 6.67-19.57-5.42-3.33-3.33-2.49-12.49-15.83 5-31.23-2.09-17.9-19.56-12.07 1.24-19.57 9.58-4.17 20.4-31.64 4.58-2.5-79.11-12.07-11.24-17.91 9.16-29.56 12.08-27.48-4.17-23.73-14.99-13.74-29.56 3.33-27.48 17.07-31.64 34.14-25.4 26.23-2.5 22.9 3.33 19.57 2.91 5.83-7.07 2.92-11.66-.84-9.16z"/><path class="d6ccccdc-4431-4be3-ad24-b032a6503c61" d="M122.66 526.46s15.11-11.69 28.6-7.7c0 0-15.42-12.22-28.6 7.7zM17.53 437s3.27 6.27 9.26 1.36c0 0-4.09 1.77-9.26-1.36zM129.45 341.2a23.3 23.3 0 0 0 14.55-2.78s-15.4.73-21.38-4.41c.04-.01.61 6.24 6.83 7.19zM291.34 497.83c-8.2 1-13.57 8.06-13.78 15.74-.33 8.27 5 13.27 12.79 12.32s13.47-7.28 13.8-15.55c.22-7.68-4.61-13.51-12.81-12.51zM218.49 333.75c.16-4.39-4.62-3.74-7.63-3.38l-1.85.22-.26 8.71 2.12-.26c3.08-.36 7.52-.97 7.62-5.29zM235.08 389l-3.25.39-.69 20.16 2.94-.36c7-.85 13.94-2.79 14.28-11.62.3-9.14-6.01-9.47-13.28-8.57zM212.82 504.55l-2.45.3-.48 12.59 2.55-.31c4.53-.55 9.43-1.91 9.68-7.78.16-5.67-5.06-5.35-9.3-4.8zM217.07 314.69c.15-3.9-3.31-3.21-6-2.87l-1.3.16-.33 7.54 1.71-.21c2.69-.31 5.85-.99 5.92-4.62zM267.45 316.45c-.47-2.17-.68-4.43-.94-6.62l-.68.08-4 16.46 7.53-.92z" transform="translate(-17.53 -262.19)"/><path class="d6ccccdc-4431-4be3-ad24-b032a6503c61" d="M528.14 478.19l-1.35-10.7-2.51-5.7c-5.12-11.63-17.78-17.94-30.72-19.51a53 53 0 0 0 12.34-32.38 49.43 49.43 0 0 0-.09-5c0-.46.07-.91.09-1.37.3-8.93-1.61-22.23-13.5-30.94l16.67-41.49-2.21-1.37-7.08-3.6c-12.47-6.34-26.48-8.63-41.65-6.78a75 75 0 0 0-13.66 3L456.52 311l-58 16.36 7.79-65.2L366.4 313 341 268.4l.57 11.7-.75-.38a36.32 36.32 0 0 0-21.22-3.5c-13.3 1.62-27 10.71-30.09 25.3l-6.51-19.9-33.16 4-7.24 20a18.4 18.4 0 0 0-5.59-10.5c-5.12-4.72-12.8-6.38-23.48-5.08l-29.22 3.55-.81 22.91c-.67.45-1.05.74-1.05.74s-12.1 8.64-21.61 4.07c0 0 3.71 6.73 13.77 7h.18a59.26 59.26 0 0 0 8.28-.43v1.09c-4.26.75-10.92 2.9-19.47 8.77 0 0-19 15.81-32.9 7.23 0 0 8 14.56 27.07 12.52 0 0 11.21-.69 17.11 3.39a25.7 25.7 0 0 1-15.16 2.2 80.8 80.8 0 0 0-35.36-3.66c-20.09 2.44-38.48 11.19-51.76 24.62a77.43 77.43 0 0 0-16.34 24.32v-.1l-.12.44a78.63 78.63 0 0 0-2.96 8.3c-4.31 10.61-13.32 27.32-27.85 28.9 0 0 12.88 5.88 24.52-1.15s-8.76 8.6-14.75 7.25a10.86 10.86 0 0 0 8.45.15s6-1.62 6.77 3.54C52 470 57.84 482.13 67.58 491.06c10.94 10 26 15.32 43.29 15.32a90.1 90.1 0 0 0 10.87-.67 84.47 84.47 0 0 0 17.15-4 20.9 20.9 0 0 0-6.69 7c10.76-7.1 26.11 4.91 26.11 4.91 8.83 5.68 15.06 6.6 17.95 6.66v.59a12.83 12.83 0 0 1-7.19-.09c-9.34-.36-12.51 5.86-12.51 5.86 7.39-3.83 17.13 2.69 17.13 2.69.77.41 1.5.78 2.23 1.13l-1.42 39.93h.23l-.23 6.35 42.41-5.16.79-21.82 5.81-.71A36.34 36.34 0 0 0 245.1 539a35.9 35.9 0 0 0 9.7 14.88c7.37 6.76 17.42 10.33 28.79 10.33a57.71 57.71 0 0 0 7-.43 58.92 58.92 0 0 0 20.89-6.54v4.13a10.1 10.1 0 0 0 0 1.87c1.11 9.66 14.23 14 28.79 14a76.48 76.48 0 0 0 8.66-.5c17-1.94 33.9-9.74 33.48-20.78l-.06-4.39v-.15l14.75-1.79.55-14.89 8.35 13.81 37.7-4.58.48-13.35.26.26c7.31 6.7 17.32 10.24 28.7 10.24a58.2 58.2 0 0 0 7-.44 57.41 57.41 0 0 0 36.18-19.52c10.6-12.35 11.19-24.7 11.76-36.64l-.23-1.85c.15-1.5.22-2.99.29-4.48zm-69-150.14c13.3-1.62 25.44.2 36.64 5.9l-12.61 31.81c-7.09-4.16-15.14-7.1-24.26-6-3.71.45-9.11 2.52-9.3 7.41-.09 4.4 5.09 4.4 8.27 4.8l9.54 1c17.8 1.91 30.41 10.11 29.72 30.27-1.1 28.37-26.95 45.48-52.15 48.54-14.69 1.79-31.56-.24-44.43-5.42l14.24-35.15 2.06 1.47c7.36 5.07 16.29 8.85 26 7.66 4.17-.51 10.92-3.05 11.06-8.4.29-5.37-5.33-5.16-9.14-5.48l-8.54-.53c-10-.6-19-3.92-24.25-10.62a63 63 0 0 0-5-18.12c1.62-27.64 27.11-46.09 52.19-49.14zm-110.29 18.27a56.57 56.57 0 1 1-56.57 56.57 56.57 56.57 0 0 1 56.57-56.57zm4.34 188.09a29 29 0 0 1-6.36 1.42c-7.68.88-12.71-1.16-13-2.53l2.64-63.69a42 42 0 0 0 24.81-.74L358.64 531c-.64 1-2.49 2.33-5.45 3.39zM301.05 321.7l.91.66c3.26 2.24 7.21 3.91 11.52 3.39 1.85-.22 4.83-1.35 4.89-3.72s-2.36-2.28-4-2.42l-3.78-.23c-7.27-.44-13.27-4.08-13-12.31.43-12.48 11.84-20.81 23.07-22.18a27.53 27.53 0 0 1 16.22 2.61l-5.58 14.08a16.92 16.92 0 0 0-10.74-2.65c-1.64.2-4 1.11-4.11 3.28 0 1.95 2.25 1.95 3.66 2.12l4.22.46c7.88.85 13.46 4.47 13.15 13.4-.49 12.56-11.93 20.13-23.08 21.48a42 42 0 0 1-19.66-2.4zm-44.84-28l20.73-2.52 16.54 50.34-19.84 2.41-1.47-6.35-14.17 1.68-1.74 6.74-19.84 2.41zm-63.46 7.74l21.83-2.65c10-1.21 20.13 0 19.67 12.12-.14 4.6-2.54 9.4-7.15 11.42v.42c5.58 1.34 9 5.1 8.74 11.37-.42 10.81-10.38 15.7-19.41 16.8L190.88 354zm-39.51 196.79a24.74 24.74 0 0 0-6.41.33 90.68 90.68 0 0 0 12.17-6.65 31.56 31.56 0 0 1 7.66 3.24c-4.57 3.36-13.42 3.08-13.42 3.08zm17.65-34.62c-12.74 15.2-32.11 24.92-50.2 27.12-35.56 4.32-63.43-14.57-62.1-52.69 1.41-38.76 30.16-65.48 66.8-69.93 20.25-2.46 47.76 4.39 56.21 23.6l-40.13 19.62c-3-5.59-9-8-15.78-7.18-15.15 1.84-23.93 16.09-24.54 30.44-.45 13.08 7.2 24.38 21 22.71 6.65-.81 15.24-5 17.47-12.48l-19.17 2.33 1-28 65.39-8c-.99 19.42-1.53 35.65-15.96 52.46zm51.56 70.48l-13.2 1.6-.79 21.82-24.89 3 2.58-72.46 32.72-4c16.6-2 28.57 5.14 28 23.11-.64 14.84-10 25.18-24.43 26.93zm8.34-96.59l-.77.1-1.33 38.13-41.43 5L191.48 362l51.17-6.22c23-2.8 42.73 3.49 46.51 25.26a63.28 63.28 0 0 0-3.89 21.89c0 2 .11 4 .29 6-3.74 6.83-10.06 11.54-19.47 15.84v.95a25.47 25.47 0 0 1 6.87 6.22l23.93 35.53-48.89 5.91zm58.71 111.27c-21.69 2.64-38.82-9.16-38-32.41.87-22.78 19.09-39.74 40.69-42.36s38.82 10 38 32.8c-.87 23.25-19.01 39.33-40.69 41.97zm59 17.92c-17.18 2-31.79-2.38-32.63-9.71-.36-3.11 1.84-6.24 5.77-9v5.6c.65 5.7 12 9.08 25.39 7.55 12.91-1.48 22.94-7 23-12.51l-.03-5.17c-.77 5.31-10.55 10.48-23 11.91-13.37 1.53-24.73-1.85-25.39-7.55-.38-3.28 2.89-6.61 8.26-9.14a4.41 4.41 0 0 1 .87-1.9 7.68 7.68 0 0 0 1.2 1h.07a10.24 10.24 0 0 0 1.2.72 22.6 22.6 0 0 0 9.87 1.92 36.56 36.56 0 0 0 4.11-.24c6.06-.69 12.13-3 14.69-6.35a3.53 3.53 0 0 1 .94 2v.25c4.18 1.38 6.92 3.53 7.23 6.23 4.67 1.79 7.66 4.41 8 7.61.83 7.27-12.42 14.81-29.6 16.78zm86.82-36.8l-24.71 3-21.32-35.3-.75.09a89.79 89.79 0 0 1 1.01 14.32l-.87 23.55-16 1.95a14.4 14.4 0 0 0-6.3-4.8 8.46 8.46 0 0 0-2.09-2.65l2.28-64 24.8-3 21.76 37.35.75-.09c-.82-5.93-1.75-12-1.45-18.2l.71-21.71 24.71-3zm74.5-20.73a48.93 48.93 0 0 1-30.62 16.54c-21.69 2.64-38.69-8.88-37.88-32.14.86-23.64 18.4-39.94 40.75-42.66 12.35-1.5 29.13 2.68 34.29 14.4l-24.48 12c-1.85-3.41-5.47-4.89-9.62-4.38-9.24 1.12-14.6 9.81-15 18.57-.27 8 4.39 14.87 12.78 13.85 4.05-.49 9.3-3 10.65-7.61L479 499.12l.6-17.1 39.89-4.85c-.6 11.83-.93 21.73-9.73 31.99z" transform="translate(-17.53 -262.19)"/><path class="d6ccccdc-4431-4be3-ad24-b032a6503c61" d="M347.11 544.69c-9.1 1-16.84-1.26-17.28-5.14a3 3 0 0 1 0-.59v4.47c.44 3.88 8.18 6.18 17.28 5.14 8.79-1 15.61-4.77 15.67-8.52v-3.4c-.6 3.57-7.23 7.07-15.67 8.04zM387.94 367.63A52.78 52.78 0 0 1 304.27 431a52.79 52.79 0 1 0 83.67-63.37z" transform="translate(-17.53 -262.19)"/></svg>