<svg id="2f777159-3391-4292-87d1-e2c555fac260" data-name="Calque 1" xmlns="http://www.w3.org/2000/svg" viewBox="0 0 232.53 455"><defs><style>.b92b04f7-d8cd-47cb-817b-341d16962ebb{fill:#000}.\39 e75d197-bbd6-4e0f-9dd7-9b19ccc3be5d{fill:none}</style></defs><title>podcast</title><path class="b92b04f7-d8cd-47cb-817b-341d16962ebb" d="M344.49 457.5a116.4 116.4 0 0 1-116.26-116.27 9 9 0 0 1 18 0 98.27 98.27 0 0 0 196.53 0 9 9 0 0 1 18 0A116.4 116.4 0 0 1 344.49 457.5zM425.16 292.17v-144.5A80.9 80.9 0 0 0 344.49 67a80.9 80.9 0 0 0-80.67 80.67v144.5h161.34z" transform="translate(-228.23 -67)"/><path class="b92b04f7-d8cd-47cb-817b-341d16962ebb" d="M263.83 303.17V341a80.9 80.9 0 0 0 80.67 80.67A80.9 80.9 0 0 0 425.16 341v-37.83H263.83zM344.49 519.13a9 9 0 0 1-9-9V448.5a9 9 0 0 1 18 0v61.64a9 9 0 0 1-9 8.99z" transform="translate(-228.23 -67)"/><path class="b92b04f7-d8cd-47cb-817b-341d16962ebb" d="M414.73 522H274.25a9 9 0 1 1 0-18h140.48a9 9 0 0 1 0 18z" transform="translate(-228.23 -67)"/><path class="9e75d197-bbd6-4e0f-9dd7-9b19ccc3be5d" d="M286.83 174.5a5.5 5.5 0 0 1-5.5-5.5v-17.48A67.58 67.58 0 0 1 348.83 84a5.5 5.5 0 0 1 0 11 56.56 56.56 0 0 0-56.5 56.5V169a5.5 5.5 0 0 1-5.5 5.5zM286.83 225.5a5.5 5.5 0 0 1-5.5-5.5v-26a5.5 5.5 0 0 1 11 0v26a5.5 5.5 0 0 1-5.5 5.5z" transform="translate(-228.23 -67)"/></svg>