<svg id="8e9017c2-d59b-42a6-9616-93f9eca70196" data-name="Calque 1" xmlns="http://www.w3.org/2000/svg" viewBox="0 0 28.92 12.55"><defs><style>.cd016d8d-0f91-465c-9c78-dcb56a4f4a1e{fill:#fff}</style></defs><title>sc</title><path class="cd016d8d-0f91-465c-9c78-dcb56a4f4a1e" d="M712.92 3377.32a8.34 8.34 0 0 1-.44 1.25 3.4 3.4 0 0 1-2.85 1.85h-9.89c-.51 0-.62-.11-.62-.6v-10.93a.49.49 0 0 1 .45-.61 6.24 6.24 0 0 1 4.41 0 6.28 6.28 0 0 1 4 5.06v.19a10.76 10.76 0 0 1 1.15-.2 3.53 3.53 0 0 1 3.72 2.9c0 .07 0 .15.06.22v.83zM684 3376.9c.06-.39.12-.79.19-1.18a1.61 1.61 0 0 1 .12-.3 1.06 1.06 0 0 1 .16.29c.08.45.15.89.21 1.34a1.08 1.08 0 0 1 0 .3c-.06.42-.12.84-.2 1.25a.6.6 0 0 1-.13.19.62.62 0 0 1-.12-.19c-.06-.36-.1-.71-.16-1.07a1.18 1.18 0 0 0-.05-.17v-.46zM698.91 3375.21a33.2 33.2 0 0 1-.14 4.78.39.39 0 0 1-.39.43.41.41 0 0 1-.38-.42 53.8 53.8 0 0 1-.1-5.49c.05-1.71.07-3.42.1-5.12v-.09a.43.43 0 0 1 .4-.52.43.43 0 0 1 .39.53zM697.73 3375.92q-.1 2-.19 4.06c0 .31-.15.47-.36.47a.41.41 0 0 1-.37-.47c-.14-2-.13-4-.08-6 0-1.32.06-2.63.08-3.95a1.65 1.65 0 0 1 0-.3.35.35 0 0 1 .69 0v.78l.12 5.38h.06zM696.44 3376a32.07 32.07 0 0 1-.15 4 .35.35 0 0 1-.32.4.34.34 0 0 1-.35-.39 45.31 45.31 0 0 1-.09-5.49c.06-1.1.06-2.2.08-3.3v-.3a.32.32 0 0 1 .32-.32.33.33 0 0 1 .34.34v.65c.09 1.41.12 2.72.17 4.41zM695.21 3375.73a30.14 30.14 0 0 1-.15 4.32.31.31 0 0 1-.32.37.34.34 0 0 1-.31-.38c0-.75-.11-1.51-.11-2.26 0-1.52 0-3 .06-4.57 0-.77 0-1.54.05-2.31a1.06 1.06 0 0 1 0-.23.3.3 0 0 1 .31-.25.29.29 0 0 1 .29.28 4.83 4.83 0 0 1 0 .48c.09 1.43.13 2.82.18 4.55zM694 3374.15v1.71a38.83 38.83 0 0 1-.16 4.22.3.3 0 0 1-.3.34.29.29 0 0 1-.29-.34 42.29 42.29 0 0 1-.14-4.68c.06-1.53.09-3.06.14-4.59a.71.71 0 0 1 0-.32.39.39 0 0 1 .26-.2.46.46 0 0 1 .27.2.42.42 0 0 1 0 .22q.05 1.72.11 3.44h.11zM691.89 3377c.07-2.37.13-4.22.19-6.07a.46.46 0 0 1 0-.23.38.38 0 0 1 .23-.18.44.44 0 0 1 .26.18.41.41 0 0 1 0 .22c0 1.18.07 2.35.11 3.53 0 .64.08 1.28.07 1.91 0 .88-.07 1.77-.11 2.65 0 .32 0 .65-.06 1a1.74 1.74 0 0 1 0 .18.26.26 0 0 1-.28.25.25.25 0 0 1-.25-.26c-.05-1.25-.11-2.47-.16-3.18zM691.59 3376a27 27 0 0 1-.19 4.15.25.25 0 0 1-.24.28.26.26 0 0 1-.25-.3c0-.64-.07-1.29-.13-1.93a34.28 34.28 0 0 1 0-4.06c0-.88.06-1.75.09-2.63v-.16a.26.26 0 0 1 .26-.31.25.25 0 0 1 .23.31c0 .53 0 1.06.06 1.59zM690.37 3375.35c0 .45.08.89.07 1.34 0 .84-.08 1.67-.13 2.51 0 .31-.05.61-.08.92 0 .15 0 .29-.22.3s-.21-.14-.22-.29c-.07-1-.18-1.95-.21-2.92s.06-1.66.1-2.49.07-1.49.11-2.24a.44.44 0 0 1 0-.2.26.26 0 0 1 .17-.12.25.25 0 0 1 .18.1.44.44 0 0 1 .05.22l.16 2.88zM689.3 3377.14l-.19 2.09c0 .28-.05.57-.07.85s0 .3-.21.3-.19-.17-.2-.31c-.06-.84-.16-1.67-.18-2.51s.06-1.47.1-2.21c0-.35.05-.69.08-1 0-.14 0-.31.2-.31s.19.16.21.31c.08.9.17 1.84.26 2.79zM687.25 3377.12c.09-1 .17-2.07.26-3.09a.59.59 0 0 1 .16-.22.55.55 0 0 1 .17.2c.1 1 .24 2 .27 3.08a15.85 15.85 0 0 1-.16 2c0 .35-.06.71-.11 1.05a.58.58 0 0 1-.16.2.51.51 0 0 1-.16-.19c-.1-1.01-.18-2.03-.27-3.03zM686.12 3377.12c.09-1 .18-2 .28-3a.57.57 0 0 1 .14-.2.58.58 0 0 1 .14.21c.11 1 .25 2 .29 3a13.13 13.13 0 0 1-.16 1.83c0 .36-.07.72-.12 1.08a.72.72 0 0 1-.14.23.65.65 0 0 1-.14-.23c-.08-.78-.15-1.56-.22-2.34-.03-.23-.05-.41-.07-.58zM685 3377.11l.23-2c0-.17 0-.34.06-.5a.4.4 0 0 1 .12-.14.42.42 0 0 1 .12.15c.11.84.25 1.68.29 2.52a9.71 9.71 0 0 1-.18 1.6c0 .29-.07.58-.12.87a.66.66 0 0 1-.11.2.48.48 0 0 1-.14-.18c-.1-.86-.19-1.69-.27-2.52z" transform="translate(-684 -3367.9)"/></svg>