<svg id="e88b116f-10da-41be-86c1-4d1a593d8873" data-name="Calque 1" xmlns="http://www.w3.org/2000/svg" viewBox="0 0 23.55 16.59"><defs><style>.\34 902d557-a256-4ffd-adeb-fb94edfc9526{fill:#fff}</style></defs><title>yt</title><path class="4902d557-a256-4ffd-adeb-fb94edfc9526" d="M763.42 3374.07a26.65 26.65 0 0 0-.31-3.18 3.16 3.16 0 0 0-1.37-2.28 4.1 4.1 0 0 0-2.16-.56l-8.11-.28c-2.59.1-5.39.19-8.19.32a3 3 0 0 0-2.9 2.28 11.74 11.74 0 0 0-.43 3.42 55.18 55.18 0 0 0 .09 6.07 8.75 8.75 0 0 0 .45 2.25 2.74 2.74 0 0 0 2.05 1.82 7.76 7.76 0 0 0 1.39.21q2.2.11 4.41.17c3.92.1 7.85.06 11.76-.21a3 3 0 0 0 2.89-2.28 14.3 14.3 0 0 0 .44-3.68c.04-1.35.04-2.71-.01-4.07zm-14.1 5.28v-6.53l6.26 3.27z" transform="translate(-739.91 -3367.77)"/></svg>