<svg id="45eaa4e4-283d-4c38-87fa-914dcf75a8ad" data-name="Calque 1" xmlns="http://www.w3.org/2000/svg" viewBox="0 0 336.77 393.85"><defs><style>.\35 7575667-0015-4175-b1de-ccd9bdb0fe93{fill:#000}</style></defs><title>articles</title><path class="57575667-0015-4175-b1de-ccd9bdb0fe93" d="M720.08 465.1H598.59a9 9 0 0 1 0-18h121.49a9 9 0 0 1 0 18zm95.41 55.49h-216.9a9 9 0 0 1 0-18h216.9a9 9 0 1 1 0 18zM839.07 430a3 3 0 0 0-2.05-2.19l-65.53-19.71a3 3 0 0 0-3.79 3.56l15.65 66.62a3 3 0 0 0 5 1.5l49.87-46.86a3 3 0 0 0 .85-2.92zm78.85-287.35l-49.58-15.37a12 12 0 0 0-15 7.91l-76.05 248.5a12 12 0 0 0 7.91 15l49.58 15.37a12 12 0 0 0 15-7.91l76.05-248.5a12 12 0 0 0-7.91-15zm-73.66 120.87l-28 88a5 5 0 0 1-9.53-3l28-88a5 5 0 0 1 9.53 3zm15.68-49l-6.33 20.33a5 5 0 1 1-9.55-3l6.33-20.33a5 5 0 1 1 9.54 2.97z" transform="translate(-589.59 -126.74)"/></svg>