<svg id="af088dff-2d7a-40d7-ab2f-e3ae7dead030" data-name="Calque 1" xmlns="http://www.w3.org/2000/svg" viewBox="0 0 331.28 326.33"><defs><style>.b0314c8f-872b-408d-86fe-b7f59cc5a08d{fill:#000}</style></defs><title>rounds</title><path class="b0314c8f-872b-408d-86fe-b7f59cc5a08d" d="M487.67 812.67a33.51 33.51 0 0 1 7.63-21.31 142.1 142.1 0 1 0 5.14 47.64 33.61 33.61 0 0 1-12.77-26.33zm-235.11-4.23a109.2 109.2 0 0 0-2.21 21.89 7 7 0 0 1-14 0 123.26 123.26 0 0 1 2.5-24.71 7 7 0 0 1 13.71 2.81zm8.26-24.65a7 7 0 0 1-12.64-6A122.38 122.38 0 0 1 358.72 708a7 7 0 0 1 0 14 109 109 0 0 0-97.9 61.79zm97.9 76.86A30.32 30.32 0 1 1 389 830.33a30.32 30.32 0 0 1-30.28 30.32zm4 23.36a4 4 0 0 1 0-8 41.73 41.73 0 0 0 41.68-41.68 4 4 0 0 1 8 0A49.74 49.74 0 0 1 362.72 884z" transform="translate(-216.72 -688.33)"/><path class="b0314c8f-872b-408d-86fe-b7f59cc5a08d" d="M521.33 786A26.67 26.67 0 1 0 548 812.67 26.67 26.67 0 0 0 521.33 786zM512 806.67a4.67 4.67 0 1 1 4.67-4.67 4.67 4.67 0 0 1-4.67 4.67zM521.33 846.33A33.55 33.55 0 0 1 512 845c-7.26 48.53-32.4 88.83-68.52 113.43a154.14 154.14 0 0 1-177.43-5.6v49.83a12 12 0 0 0 12 12h161.33a12 12 0 0 0 12-12V971.3a165.34 165.34 0 0 0 30.07-26.13c24.4-27 40.1-61.49 45.55-99.33a33.72 33.72 0 0 1-5.67.49z" transform="translate(-216.72 -688.33)"/></svg>